<?xml version="1.0" encoding="UTF-8" standalone="no"?>
<svg xmlns:rdf="http://www.w3.org/1999/02/22-rdf-syntax-ns#" xmlns="http://www.w3.org/2000/svg" height="211.65617" width="227.67855" version="1.1" xmlns:cc="http://creativecommons.org/ns#" xmlns:dc="http://purl.org/dc/elements/1.1/" viewBox="0 0 227.67855 211.65617"><path d="M97.23162,84.42835c16.16869,31.16679-27.94768,40.01934-27.94768,71.03979,0,11.85217,7.82828,21.58266,7.82828,21.58266H34.60539V139.37262H55.01745L129.86164,34.67855h46.45755V139.37262h16.754V177.0508H166.29607s-19.89992-3.29228-19.89992-31.02048c0-32.70319,27.14291-33.65429,27.14291-63.94314,0-25.97233-25.75286-42.79946-25.75286-42.79946,7.46249,38.92189-22.68005,35.48331-27.50871,61.23615C113.18083,91.59818,97.23162,84.42835,97.23162,84.42835Zm113.693,20.33888V0H112.0834L37.23921,104.76723H0V211.65617H120.27749s-19.46095-16.46134-19.46095-32.77633c0-17.77825,20.7047-22.38742,26.19181-43.45793a42.57994,42.57994,0,0,1,3.51176,16.46134c0,19.09513-10.31578,23.77746-10.31578,37.23919,0,20.48521,20.70471,22.53373,20.70471,22.53373h86.76951V104.76723Z" fill="#ffc72c"/><path d="M197.60918,181.66H166.00342S141.787,179.392,141.787,146.03034c0-32.92267,27.14291-37.09287,27.14291-63.94314,0-19.022-15.65656-32.04473-15.65656-32.04473.14632,36.72706-33.28848,28.45981-29.48409,66.577,0,0-1.90219-13.02275-18.94881-22.8264,3.2191,26.63079-30.94732,37.97081-30.94732,61.67515,0,15.29073,13.90069,26.19181,13.90069,26.19181H29.99622V134.76347H52.67629L127.52048,30.06938h53.40789V134.76347h16.68081ZM206.31541,4.60917H114.42456L39.58037,109.37642H4.536V207.047H109.30326s-13.09589-13.31539-13.09589-28.16718c0-23.63115,24.28961-21.29,28.97194-56.11485,0,0,9.95,12.43745,9.95,29.11826,0,20.41206-10.31578,25.02123-10.31578,37.23921,0,16.315,16.53449,17.92456,16.53449,17.92456h81.72139v-97.6706h-16.754Z" fill="#c8102e"/></svg>