<?xml version="1.0" encoding="UTF-8" standalone="no"?>
<svg xmlns:rdf="http://www.w3.org/1999/02/22-rdf-syntax-ns#" xmlns="http://www.w3.org/2000/svg" height="240.86747" width="248.73847" version="1.1" xmlns:cc="http://creativecommons.org/ns#" xmlns:dc="http://purl.org/dc/elements/1.1/" viewBox="0 0 248.73847 240.86747"><path d="M238.53532,73.82715a123.43915,123.43915,0,0,0-27.18414-38.4076A127.87014,127.87014,0,0,0,171.85037,9.54726,122.86114,122.86114,0,0,0,124.40568,0,124.72852,124.72852,0,0,0,77.03386,9.32863a127.37679,127.37679,0,0,0-39.57369,25.435,122.80773,122.80773,0,0,0-27.257,38.11606A113.12551,113.12551,0,0,0,0,119.96c0,65.51885,56.99194,120.90744,124.40568,120.90744a125.96886,125.96886,0,0,0,47.29893-9.25572,128.70529,128.70529,0,0,0,39.57369-25.435,120.18192,120.18192,0,0,0,27.257-38.04322,113.12527,113.12527,0,0,0,10.20315-47.0803A114.5321,114.5321,0,0,0,238.53532,73.82715Z" fill="#0033a0"/><path d="M237.07771,121.05321c0,60.12577-52.61916,108.15351-112.672,108.15351-60.12575,0-112.74492-49.1938-112.74492-109.24669,0-60.12577,52.61917-108.29927,112.74492-108.29927C184.45855,11.66076,237.07771,61.00036,237.07771,121.05321Z" fill="#0033a0"/><path d="M124.40568,229.20673c-51.59886,0-97.586-36.2212-109.684-84.46761.14577-.14577.29152-.2915.29152-.3644.3644-.65591,1.31184-.65591,1.96775-.94743.36441-.14578.7288-.43726,1.16608-.29151.80168.21863,1.09319.87456,1.53048,1.23894.21863.21863.14575.58305.29151.80168.3644.87456,1.31184,1.23894,1.89488,1.89487a.93733.93733,0,0,0,.87455.29153c.94744-.29153,1.822-.65593,2.69655-1.02031.51015-.29153.80168-.87456,1.38471-1.02032a12.44944,12.44944,0,0,0,1.53048-.51015l.07287-17.63692,6.4863,8.96421L34.8365,144.812c.51015.07286,1.96775.29149,2.405.36438a15.41982,15.41982,0,0,0,4.51855,0,9.85471,9.85471,0,0,0,2.1135-.36438,4.34135,4.34135,0,0,1,3.20672-.4373,22.36048,22.36048,0,0,0,4.59142,1.16608,6.61418,6.61418,0,0,0,2.91518.21863,23.98176,23.98176,0,0,1,3.13383-.65592c.94745-.07286,1.74912-.87454,2.62368-1.02031.51015-.07286.94742-.36439,1.4576-.43727.72878-.14575,1.3847.14578,2.1135,0a35.40221,35.40221,0,0,0,4.81006-1.0932,10.58455,10.58455,0,0,1,2.62367-.14576,18.65767,18.65767,0,0,1,6.77782,1.31184,3.8522,3.8522,0,0,0,4.227-1.60336.56.56,0,0,1,.21863-.14574,6.41877,6.41877,0,0,1,2.33215-.29152,16.60007,16.60007,0,0,1,2.84231.43726,22.8791,22.8791,0,0,0,6.70494.07289c.36439,0,.65592-.51015,1.09319-.65592,2.76942-.80169,5.10157,1.53046,7.65235,1.38471a29.18282,29.18282,0,0,0,3.57113,0,19.41775,19.41775,0,0,0,2.76943-.72879,5.03934,5.03934,0,0,1,2.91518.29153c1.38471.29149,1.96774,1.60333,3.27958,1.96775a7.48893,7.48893,0,0,0,4.00839-.0729,2.02426,2.02426,0,0,0,1.09319-.583c.51017-.65593.7288-1.38474,1.38471-1.822a6.07788,6.07788,0,0,1,.87458-.583,6.50078,6.50078,0,0,1,2.33215-.3644,12.22007,12.22007,0,0,0,5.17445-.65591,17.99956,17.99956,0,0,1,5.0287-1.45761l12.31667,1.02031a7.34122,7.34122,0,0,0,1.822-.21863,24.4989,24.4989,0,0,1,3.42534-2.405,20.86293,20.86293,0,0,1,2.5508-.87454,6.21841,6.21841,0,0,0,1.53047-1.02031,3.00546,3.00546,0,0,1,.94745-.72879c1.16606-.583,2.33215.36439,3.49821.65591a.58776.58776,0,0,0,.65593-.21865c1.23894-1.02031,1.89487-3.13383,3.644-3.2067a4.9127,4.9127,0,0,1,3.35246,1.74909,5.68174,5.68174,0,0,0,2.55078,1.60337,11.83861,11.83861,0,0,0,1.38473.29152c1.89487.14577,3.86262.51016,5.68461-.29152a10.30918,10.30918,0,0,0,1.74911-.94744c2.11352-1.7491,2.33215-2.33215,5.0287-2.405a16.57781,16.57781,0,0,1,1.89489.14577c1.45757.29149,2.25926-.14577,3.644-.29153a14.75467,14.75467,0,0,0,2.405-.65593c.29153-.14575.65593,0,.94746-.14575a10.87367,10.87367,0,0,0,2.55078-1.96776c.14575-.14576.29152-.43726.583-.51016,2.18638-.80168,4.51852-.14575,6.77781-.80168a35.07773,35.07773,0,0,0,3.86262-1.45757c.21863-.14576.65591.07287.80168-.0729a9.316,9.316,0,0,1,1.60336-.65591,31.61505,31.61505,0,0,1,5.466-1.45761c.36439,0,.65591-.29149.94742-.36438,1.45759-.29153,2.76943-.583,4.29989-.87456a51.017,51.017,0,0,0,8.0168-2.4779,18.44162,18.44162,0,0,1,1.67622-.87456,23.26407,23.26407,0,0,0,3.20671-.94743,5.03269,5.03269,0,0,1,2.55079,0c.07288.87454.07288,1.74909.07288,2.55077C237.07771,181.179,184.45855,229.20673,124.40568,229.20673Zm0-217.546c56.62753,0,106.55012,43.80075,112.16188,99.11641a4.52674,4.52674,0,0,0-.72879.21866,9.35458,9.35458,0,0,0-2.62367,2.47791c-.72883.94741-1.89489,2.18639-3.13383,1.822-1.239-.43728-2.405.14573-3.49824.583-.94743.36439-1.60336,1.45759-2.69657,1.60336-1.38469.14576-2.76941-.43729-4.15414,0-.21863.07286-.43726.29149-.65591.21863h-.07287a2.35424,2.35424,0,0,0-1.822,1.02032,8.63794,8.63794,0,0,1-2.55079,2.33214.88707.88707,0,0,1-.94742,0,4.076,4.076,0,0,1-1.45761-1.67623c-.21863-.51016.14577-1.53047.21863-1.822.14577-1.02031-.72879-1.89485-2.04062-2.76943-.72879-.51015.72878-1.89486.29152-2.91518a1.76639,1.76639,0,0,0-1.822-.87454,3.71567,3.71567,0,0,0-2.11352.583c-.65591.51015-.72879,1.31184-1.45759,1.74913a.56014.56014,0,0,0-.14577.21863,3.4766,3.4766,0,0,0-.14576,2.69654c-2.25925.29152-2.62365-2.04063-3.71686-3.42532a2.15088,2.15088,0,0,0-2.405-.94746c-.14574,0-.583.36441-.94742.51016-.43728.29152-1.38473,1.38471-2.04064,1.7491l-.87456.58305a2.89883,2.89883,0,0,1-1.96774,1.23894,22.56591,22.56591,0,0,1-6.26766,0c-2.47793-.43726-5.17446-.65589-6.70493,1.09321-.94745,1.02031-2.25929,1.53046-3.061,2.69655a18.96327,18.96327,0,0,1-1.822,2.25927c-.51016.4373-1.09319.65593-1.60335,1.16608-.07289.14576-.07289.36439-.14577.43728a6.21159,6.21159,0,0,0-1.45759,1.23894,13.06123,13.06123,0,0,1-2.76943,2.1864,9.11155,9.11155,0,0,1-5.68462.80168c-2.18638-.43726-2.5508-.94745-4.59142-2.04062-.36441-.21863-3.06094-1.67624-2.62368-2.11352.58305-.65593,1.38473-.72879,1.822-1.60336.36441-.72879-.14575-1.45758.51016-2.1864,1.53049-1.67622,4.00841-1.02031,5.8304-2.18638,1.60334-1.02031,2.47788-2.8423,4.29988-3.42535,2.84232-.87456,5.90327.21865,8.52693-1.45757,1.31184-.87458,1.09321-2.98808,2.25929-3.86266a5.36284,5.36284,0,0,1,4.6643-.80168,1.27274,1.27274,0,0,0,1.60336-.72878c.80168-1.822-2.25929-1.45759-.80168-3.71685,1.67622-2.55081,4.81005-3.20672,7.21507-5.10159,1.16607-.94744,2.11352-2.69655,3.27959-3.06094,2.33215-.7288,4.59144.14574,6.92359-.4373,1.67622-.36438,4.59142-1.822,3.35246-3.86261-.65593-1.02033-2.1864-.80168-3.27961-.80168a23.53856,23.53856,0,0,0-9.18282,1.89487c-.3644.21863-.80168.07289-1.23894.43728a26.07477,26.07477,0,0,1-4.95582,3.42533c-2.55082,1.38474-3.93552.58305-6.41344,2.25929-1.16606.80169-4.73717,3.13383-4.73717,4.37278v-.21863c-.4373.80168-1.38471,1.02031-1.822,1.31183-1.67624,1.02031-3.061.87454-4.95583,1.3847-1.45761.3644-2.98807,1.45761-4.73717,1.02031l-9.54726,4.08128c-.14576.94744-5.02868,1.16607-5.90326,1.09321a39.96716,39.96716,0,0,0-10.71331.43726c-.51017.14575-.94743.14575-1.45759.29153-2.04064.43727-5.83038-1.74914-10.13028-2.04063-3.49825-.21866-5.90327,0-9.40149-.43729-2.62367-.36439-5.90325-1.96775-8.59981-2.76943-.14575-.07288-2.47792-.43726-2.55077-.43726-1.74914-.29153-3.49825-.36441-5.24735-.65593-1.53047-.21865-2.76943-1.60336-4.29991-1.45759-.7288.14575-1.09319,1.31184-1.74911,1.38469A2.45239,2.45239,0,0,1,92.703,104.801l-.65592-.65591a2.09592,2.09592,0,0,0-2.47791-.583,3.7676,3.7676,0,0,0-2.405,2.62367c-.14577.51016.2915,1.16609.14576,1.45758a3.77469,3.77469,0,0,1-1.02033,1.5305,2.4572,2.4572,0,0,1-1.239.36438,20.27052,20.27052,0,0,0-6.92357,1.45761,1.26527,1.26527,0,0,1-1.239-.07289c-.21865-.21863-.51016-.07288-.72881-.14577-.72879-.29153-1.09319-1.02031-1.822-1.45759-1.4576-1.09319-2.04063-1.89487-3.78975-2.55078-.14576-.07288-1.09319-.36441-1.31184-.4373-1.16607-.65591-3.20669-.51016-4.66429-.43726a3.97973,3.97973,0,0,0-1.89487.72878c-.51016.29153-1.02032.36441-1.16608,1.09321-.07288.43726-.583.72879-1.02031.87456-.29153.14575-.51017,0-.7288-.14577-.87456-.43726-1.53048-1.09317-2.33215-1.53047-.29152-.14575-.583,0-.94744-.07289-.94743-.21864-1.89488-.21864-2.18639-.87454-.14577-.36441.51015-.583.7288-.94746a2.6652,2.6652,0,0,0,.14575-1.822c-.3644-1.09317-2.76942-1.7491-3.78973-2.11348-.21865-.0729-.43729,0-.58306-.0729-1.02031-.43726-2.33214-.94741-2.91518.14576a1.70164,1.70164,0,0,0,0,1.45761,14.5627,14.5627,0,0,0,1.09319,2.76942,26.21036,26.21036,0,0,0,.87457,3.20671,1.141,1.141,0,0,1-.72881,1.45759,1.50949,1.50949,0,0,1-1.822-1.239,2.15006,2.15006,0,0,0-2.8423-1.45757c-.7288.21863-.58305,1.3118-.94745,1.53047-.94742.583-2.405-.80169-2.405-1.96777a8.07591,8.07591,0,0,0-.29152-2.69653c-.29152-.58305-.51016-1.45761-1.31184-1.38473.07288.07289-.583.29152-1.09319.36438a6.82277,6.82277,0,0,0-2.69656.80168,7.09221,7.09221,0,0,1-1.67623.80168c-1.09319.21863-2.8423.14577-3.5711,1.09321-3.13383,4.00839-1.67623,1.67624-2.18639,6.48629-.07288.29152-1.16608.21863-1.16608,0-.3644-2.04062-1.02032-3.78974-2.76942-4.73719a5.78787,5.78787,0,0,0-3.35247-.21863c-.65592.14577-1.31183,1.02031-1.89487,1.31183-.07288,0-.21864.21863-.21864.4373a1.82644,1.82644,0,0,0,.583,1.89485c.583.51016,2.04062.3644,2.405.87456.583.7288-.14577,2.11352-.80169,2.8423a1.80661,1.80661,0,0,1-1.23895,0c-.94743-.43726-1.02031-1.74909-1.96775-2.1135a9.37213,9.37213,0,0,1-1.38472-.29152,1.16442,1.16442,0,0,0-1.53046.87456c-.36441,1.0932.80167,2.33215.43727,3.061a2.86189,2.86189,0,0,0-.21864,2.04062c.14576.65593.7288.94746,1.09319,1.45761a5.22443,5.22443,0,0,1,1.239,2.55078c.14576,1.45759.21864,3.78974-.51016,4.2999-.583.43729-1.38471.43729-1.89487.87456-.07288.07289-.07288.21864-.29152.36442-1.67623,1.31183-2.11351,5.24731-.29152,5.83036a2.09814,2.09814,0,0,1,1.74911,2.33215,1.86193,1.86193,0,0,1-.87455,1.0932,6.772,6.772,0,0,1-2.11351.36441h-.07288a102.12286,102.12286,0,0,1-1.53048-17.564C11.66074,59.83426,64.27991,11.66076,124.40568,11.66076ZM234.23541,75.79492a117.44192,117.44192,0,0,0-26.16383-36.95,122.23124,122.23124,0,0,0-38.04322-24.99772A118.79473,118.79473,0,0,0,78.783,13.70139,122.03382,122.03382,0,0,0,40.73975,38.189a117.01535,117.01535,0,0,0-26.2367,36.58564A108.89663,108.89663,0,0,0,4.73717,119.96c0,62.96807,54.80555,116.24312,119.66851,116.24312A121.06925,121.06925,0,0,0,169.9555,227.239a122.36089,122.36089,0,0,0,38.11608-24.48759,116.28879,116.28879,0,0,0,26.16383-36.58561,108.31943,108.31943,0,0,0,9.76587-45.11257A109.72531,109.72531,0,0,0,234.23541,75.79492Z" fill="#e03c31"/><path d="M175.93163,163.25056c-1.16608.94745-4.59144,3.78976-13.84715,3.86263-9.54725.14576-17.19962-3.35246-17.12673-6.85069v-4.59142s0-3.57111,1.23895-4.44567c1.239-.80168,3.71686-4.51854,14.72171-4.44566,4.6643,0,11.22347,1.16608,15.30473,5.24734a4.16051,4.16051,0,0,1,1.239,3.42534v4.59142S177.17058,162.30312,175.93163,163.25056Z" fill="#fff"/><path d="M144.95775,155.16091v5.10159c-.07289,3.49822,7.57948,6.99645,17.12673,6.85069,9.25571-.07287,12.68107-2.9152,13.84715-3.86263,1.23895-.94744,1.53047-3.20671,1.53047-3.20671V155.744c-2.76943,3.2067-10.34892,4.00839-15.59625,4.00839S148.01869,158.44051,144.95775,155.16091Z" fill="#e03c31"/><path d="M149.11189,19.82329l-44.96679-.2915-.21864,36.14835L85.8523,18.4386A117.46571,117.46571,0,0,0,56.62753,34.03485l-.3644,65.3731,24.19607.07288L80.67784,67.851l17.85552,31.484,28.93325.14576.29153-59.5427L154.505,102.25027c.7288,1.7491.43728,1.60335-.14576,2.55078-.6559,1.02031-15.23185,30.46372-15.23185,30.46372l-6.1219,10.64044s-2.62368,5.0287-4.44567,8.2354c-1.89487,3.20673-3.42534,4.51855-8.96419,5.39311-2.33215.3644-44.52951,4.227-47.22606,4.44566s-2.5508.43728-2.47791,3.27959c0,0,1.67623,15.37762,2.11351,18.803.51016,3.49823,1.96775,2.76944,4.08126,2.405,0,0,42.63464-7.57948,47.22606-8.52691a8.9519,8.9519,0,0,0,6.19476-5.32023s10.64045-21.64526,11.73364-23.6859l5.90326-11.8065,52.03611-98.97065a102.3933,102.3933,0,0,0-8.2354-6.632L170.61141,72.80686Z" fill="#fff"/><path d="M142.77134,147.80008l-8.38116-4.2999-.72881,1.23894,8.52694,4.227Zm4.08126-8.08966-7.94388-4.08126-.7288,1.239,8.08965,4.08126Zm-2.1135,4.15414-8.08965-4.29989-.7288,1.31184,8.2354,4.227Z" fill="#e03c31"/><path d="M34.69072,173.74526l-6.41339-10.932.07288-18.00128H34.8365Zm8.89134-26.60109c-1.74912-1.89487-5.90326-1.16609-5.90326,1.53046l-.07288,12.38957a7.7734,7.7734,0,0,0,1.822,5.10158c.94743,1.09319,6.55918,7.871,7.57949,8.89131a11.6207,11.6207,0,0,1,1.822,5.53886c-.07289,1.45761-.87457,1.02033-1.53049.3644a27.69462,27.69462,0,0,1-2.405-2.8423,4.30222,4.30222,0,0,1-.65593-2.69655l.07287-1.239-6.48629-6.632-.07287,7.36085a9.82364,9.82364,0,0,0,1.60334,5.68461,121.5042,121.5042,0,0,0,10.78622,12.17092c2.405,1.96774,5.83038,1.0932,5.83038-1.38472L56.04449,179.94a10.69882,10.69882,0,0,0-2.11352-6.55917c-1.31181-1.74911-7.5066-10.34892-8.38116-11.515a5.09065,5.09065,0,0,1-1.16607-3.13383c0-1.02031.7288-1.53046,1.822-.65591s2.55079,2.62368,2.55079,4.15415v2.04064l7.14221,6.632v-5.3931a12.72675,12.72675,0,0,0-1.822-6.85069C52.83779,156.69141,45.03965,148.74753,43.58206,147.14417Zm28.4231,53.5666v8.52691c-2.25928-1.23894-10.56757-6.70492-13.7014-9.62012l.21864-38.69913,7.65237,6.48629-.21863,28.86038A29.87518,29.87518,0,0,0,72.00516,200.71077Zm17.564-.21865-2.04064-12.2438-.07288-.07287-3.644,10.56755Zm-16.90809,9.11,10.49467-34.32634,10.78619,2.98806,5.68462,41.54145-8.52692-2.33216-1.38472-9.47435-7.14221-2.62368-2.18639,8.08966Zm47.66331,12.89971-11.22346-22.95711.07287.07288-.07287,22.15543-8.81846-1.822.21865-40.2296,10.71331,1.822,8.89133,19.09447.07288-.07288.07288-17.19959,8.81843.07287-.14575,39.1364Zm28.35023-13.92.07287-16.61658c-.14577-1.38472-.3644-3.20671-2.47792-2.62366l-5.24733,1.31184-.07287,22.66558a13.769,13.769,0,0,0,4.66429-.72879C146.9255,212.15288,148.82037,211.7156,148.67462,208.58177Zm-1.60337,11.80652a103.99193,103.99193,0,0,1-14.94034,1.96774l.14577-38.91776,16.68944-3.13383c6.70494-.94743,7.43375,2.1135,7.9439,4.37277l-.14577,25.435C156.54562,216.08837,151.37117,219.58661,147.07125,220.38829Zm12.31667-3.35248.21865-39.06352,16.47082-7.14221-.07288,8.16253-8.45406,3.35246-.07287,8.08965,7.79813-3.06095v6.4863l-7.79813,2.98806-.07288,9.62012,7.65238-2.98806-.0729,6.63205C171.41309,212.59016,164.56238,215.43246,159.38792,217.03581Zm33.37891-33.08738,6.85069,8.59981a54.73936,54.73936,0,0,1-5.83036,5.17445l-8.08965-10.932-.07288,17.05385-7.43374,4.81007.21865-38.62626,10.932-7.21509c4.44567-3.27958,8.81844-4.37277,8.81844,3.49823,0,5.0287.51016,11.515-2.69655,14.86747Zm-7.06932-3.061,2.76942-1.74911c2.47791-1.822,3.061-2.98806,3.061-6.049-.07288-2.5508-.94744-3.42536-3.35248-1.67624l-2.405,1.96776Zm14.86747-4.37279,5.39308-4.227c-.21863,2.98807.51016,4.37279,1.89489,2.98807a5.59558,5.59558,0,0,0,1.89487-3.644c-.07288-2.25928-1.239-2.11352-2.1864-2.25928l-3.49823-.583a4.7162,4.7162,0,0,1-3.644-4.37279c.07288-1.822.21865-3.86263.21865-6.34054a12.58756,12.58756,0,0,1,3.78974-8.52693c1.822-1.60334,4.95583-4.59142,7.14222-6.26764,2.1135-1.74912,5.10158-1.02033,5.0287,2.04062v7.43373l-5.3931,6.049c.07287-3.78976.3644-6.12191-1.38472-4.883-1.31183.94744-1.67624,1.89487-1.67624,3.93551s.583,3.27959,2.405,3.42534c1.89489.14575,5.53887.07288,5.53887,3.644-.07289,3.644-.07289,7.50662-2.11351,10.71332a96.09635,96.09635,0,0,1-8.16253,10.20316c-2.04063,2.18639-5.32023,1.239-5.32023-2.69655Z" fill="#e03c31"/></svg>