<?xml version="1.0" encoding="UTF-8" standalone="no"?>
<!-- Created with Inkscape (http://www.inkscape.org/) -->
<svg
   xmlns:dc="http://purl.org/dc/elements/1.1/"
   xmlns:cc="http://creativecommons.org/ns#"
   xmlns:rdf="http://www.w3.org/1999/02/22-rdf-syntax-ns#"
   xmlns:svg="http://www.w3.org/2000/svg"
   xmlns="http://www.w3.org/2000/svg"
   xmlns:sodipodi="http://sodipodi.sourceforge.net/DTD/sodipodi-0.dtd"
   xmlns:inkscape="http://www.inkscape.org/namespaces/inkscape"
   id="svg2403"
   sodipodi:version="0.32"
   inkscape:version="0.46"
   width="227"
   height="195"
   xml:space="preserve"
   sodipodi:docname="Los Angeles Kings.svg"
   version="1.0"
   inkscape:output_extension="org.inkscape.output.svg.inkscape"><metadata
     id="metadata2408"><rdf:RDF><cc:Work
         rdf:about=""><dc:format>image/svg+xml</dc:format><dc:type
           rdf:resource="http://purl.org/dc/dcmitype/StillImage" /></cc:Work></rdf:RDF></metadata><defs
     id="defs2406"><inkscape:perspective
       sodipodi:type="inkscape:persp3d"
       inkscape:vp_x="0 : 526.18109 : 1"
       inkscape:vp_y="0 : 1000 : 0"
       inkscape:vp_z="744.09448 : 526.18109 : 1"
       inkscape:persp3d-origin="372.04724 : 350.78739 : 1"
       id="perspective2410" /><clipPath
       clipPathUnits="userSpaceOnUse"
       id="clipPath2418"><path
         d="M 0,1730 L 1830,1730 L 1830,0 L 0,0 L 0,1730 z"
         id="path2420" /></clipPath></defs><sodipodi:namedview
     inkscape:window-height="904"
     inkscape:window-width="1280"
     inkscape:pageshadow="2"
     inkscape:pageopacity="0.0"
     guidetolerance="10.0"
     gridtolerance="10.0"
     objecttolerance="10.0"
     borderopacity="1.0"
     bordercolor="#666666"
     pagecolor="#ffffff"
     id="base"
     showgrid="false"
     inkscape:zoom="3.4182659"
     inkscape:cx="131.58425"
     inkscape:cy="180.64879"
     inkscape:window-x="-4"
     inkscape:window-y="-4"
     inkscape:current-layer="g2412" /><g
     id="g2412"
     inkscape:groupmode="layer"
     inkscape:label="Los Angeles Kings"
     transform="matrix(1.25,0,0,-1.25,-5.9375,197.089)"><g
       id="g2414"
       transform="matrix(9.8887515e-2,0,0,9.8887515e-2,5.0802847,2.4400508)"><g
         id="g2416"
         clip-path="url(#clipPath2418)"><g
           id="g2422"
           transform="translate(966,4)"><path
             d="M 0,0 C 292,0 546,29 678,63 L 859,1091 L 667,838 C 586.5,975 371,1059.5 296.667,1080 L 355.333,1223 L 221.333,1170 L 233.5,1203.5 L 107,1198 L -7.5,1389 L 42,1471.5 L 75,1501.75 L 41.334,1554 L -15.416,1543.25 L -15.417,1509.167 L -53.333,1456 L -86,1510.75 L -86.25,1550.25 L -146.75,1552 L -176.75,1496.25 L -146.75,1472 L -99.75,1389.25 L -208.667,1198 L -340.5,1203.25 L -323.333,1170.333 L -457,1223 L -397.333,1080.333 C -558.85,1024.74 -650.666,972.923 -769,838.5 L -961.25,1091.25 L -780.25,62.5 C -616.616,23.56 -292,0 0,0"
             style="fill:#8f8e93;fill-opacity:1;fill-rule:nonzero;stroke:none"
             id="path2424" /></g><g
           id="g2426"
           transform="translate(1224.25,1076.875)"><path
             d="M 0,0 C -18.667,5.034 -38.47,10.547 -57.624,14.604 C -80.353,19.418 -103.391,23.537 -126.645,26.981 L -196.916,-17.542 L -200.518,35.574 C -271.622,41.633 -343.883,41.525 -414.925,35.338 L -418.917,-23.542 L -496.304,25.49 C -742.215,-12.794 -961.587,-126.282 -1050.25,-311.375 L -860.25,-460.875 L 281.75,-434.875 L 434.75,-315.542 C 357.329,-156.067 193.601,-52.205 0,0"
             style="fill:#000000;fill-opacity:1;fill-rule:nonzero;stroke:none"
             id="path2428" /></g><g
           id="g2430"
           transform="translate(202.6265,725.417)"><path
             d="M 0,0 C 33.274,73.434 87.903,136.582 158.04,187.917 C 362.963,337.901 695.903,390.355 980.951,329.983 C 1000.105,325.926 991.374,313.283 1010.041,308.25 C 1164.882,265.171 1332.874,173.296 1401.374,41.583 C 1408.669,27.555 1313.374,-421.417 1313.374,-421.417 L 129.374,-441.417 L 0,0 z"
             style="fill:#ffffff;fill-opacity:1;fill-rule:nonzero;stroke:none"
             id="path2432" /></g><g
           id="g2434"
           transform="translate(584.5,168.5)"><path
             d="M 0,0 C 244.261,-50.822 316.833,-73.834 655.25,-1 C 340.833,55.167 151.833,36.833 0,0"
             style="fill:#ffffff;fill-opacity:1;fill-rule:nonzero;stroke:none"
             id="path2436" /></g><g
           id="g2438"
           transform="translate(261.123,677.4189)"><path
             d="M 0,0 C 0,0 55.498,212.99 337.483,269.987 C 273.97,244.944 224.291,217.743 185.21,187.581 C 62.781,93.094 45.877,-13.905 45.877,-38.919 C 45.877,-71.917 0,0 0,0"
             style="fill:#472289;fill-opacity:1;fill-rule:nonzero;stroke:none"
             id="path2440" /></g><g
           id="g2442"
           transform="translate(415.5,387.5)"><path
             d="M 0,0 C 0,0 -119.036,340.296 164.167,471.666 C 178.8,478.455 194.647,483.899 211.5,489.5 C -88.5,333.5 64.25,15.75 64.25,15.75 L 0,0 z"
             style="fill:#472289;fill-opacity:1;fill-rule:nonzero;stroke:none"
             id="path2444" /></g><g
           id="g2446"
           transform="translate(1348,395.333)"><path
             d="M 0,0 C 0,0 157,330.667 -147,482.667 C -106.969,468.491 -71.956,452.384 -43.75,432.667 C 176.766,278.52 63,-18.333 63,-18.333 L 0,0 z"
             style="fill:#472289;fill-opacity:1;fill-rule:nonzero;stroke:none"
             id="path2448" /></g><g
           id="g2450"
           transform="translate(1525.667,625.667)"><path
             d="M 0,0 C 0,0 -2.667,215.333 -295.667,321.333 C -265.757,315.523 -237.504,308.526 -212.334,299.333 C -3.56,223.083 47.667,46.332 47.667,46.332 L 0,0 z"
             style="fill:#472289;fill-opacity:1;fill-rule:nonzero;stroke:none"
             id="path2452" /></g><g
           id="g2454"
           transform="translate(197,90.5)"><path
             d="M 0,0 L 61.5,112 L 280.333,96.166 C 280.333,96.166 429,40.833 617.5,23.5 C 459.667,21.499 258.5,49 258.5,49 C 258.5,49 380,4.499 578,-17 C 447,-23.167 181.5,13.5 181.5,13.5 C 181.5,13.5 303.667,-34.501 562,-61.5 C 217,-53.167 0,0 0,0"
             style="fill:#472289;fill-opacity:1;fill-rule:nonzero;stroke:none"
             id="path2456" /></g><g
           id="g2458"
           transform="translate(1633.667,90.666)"><path
             d="M 0,0 L -61.5,112 L -280.334,96.166 C -280.334,96.166 -429,40.833 -617.5,23.5 C -459.666,21.499 -258.042,50.209 -258.042,50.209 C -258.042,50.209 -380,4.499 -578,-17 C -447,-23.167 -184.167,14.334 -184.167,14.334 C -184.167,14.334 -303.666,-34.501 -562,-61.5 C -220.333,-63.999 0,0 0,0"
             style="fill:#472289;fill-opacity:1;fill-rule:nonzero;stroke:none"
             id="path2460" /></g><g
           id="g2462"
           transform="translate(1478.167,606.5)"><path
             d="M 0,0 C 0,0 12.166,-132.5 -24.167,-212.833 C -73.866,-194.521 -126.249,-179.432 -180.271,-167.292 L -236.167,106.5 L -371.645,-136.787 C -409.96,-132.953 -448.487,-130.34 -486.913,-128.897 L -189.834,587 L -446.183,472.507 L -446.183,557.594 L -564.576,777.384 L -681.167,577.13 L -681.167,473.296 L -936.5,587.833 L -638.622,-129.092 C -678.118,-130.663 -717.026,-133.403 -754.977,-137.217 L -889.167,107 L -946.161,-167.256 C -1003.456,-179.893 -1055.979,-195.233 -1101.833,-212.833 C -1127.167,-156.5 -1127.833,-45.167 -1127.404,0.654 L -1444.167,422.167 L -1281.167,-516 C -1042.305,-426.652 -811.169,-382.216 -578.167,-382.5 C -466.263,-382.637 -357.362,-395.482 -249.5,-413.834 C -111.874,-437.25 23.523,-471.178 155.5,-515.834 L 318.166,422 L 0,0 z"
             style="fill:#000000;fill-opacity:1;fill-rule:nonzero;stroke:none"
             id="path2464" /></g><g
           id="g2466"
           transform="translate(1501,601)"><path
             d="M 0,0 C 0,0 9,-183.333 -40,-232.667 C -96.928,-211.344 -168.25,-190.75 -221.5,-179.25 L -268,53 L -381.5,-153.25 C -435.75,-148.5 -507.5,-144.5 -544,-143.773 L -495.833,5.25 L -585.5,235 L -675.333,5.166 L -627.006,-143.515 C -669.5,-144 -747,-149.5 -789.5,-153.5 L -904,50 L -949.939,-179.348 C -1018.392,-193.211 -1080.07,-211.096 -1131.5,-232.5 C -1183.5,-175 -1171,-1 -1171,-1 L -1431,343.813 L -1371.431,0.536 C -1365.686,1.711 -1359.747,2.332 -1353.667,2.332 C -1303.593,2.332 -1263,-39.454 -1263,-91.001 C -1263,-137.603 -1296.179,-176.224 -1339.546,-183.205 L -1287.667,-482.167 C -1238.317,-464.744 -1189.895,-448.285 -1142,-434.25 C -954.171,-379.208 -776.423,-352.513 -584.5,-355.5 C -410.314,-358.212 -224.172,-385.104 -13.5,-442.5 C 28.645,-453.982 71.465,-467.676 115.833,-481.501 L 167.563,-182.98 C 124.843,-175.437 92.334,-137.13 92.334,-91.001 C 92.334,-39.454 132.926,2.332 183,2.332 C 188.604,2.332 194.087,1.805 199.409,0.804 L 258.75,343.25 L 0,0 z"
             style="fill:#8f8e93;fill-opacity:1;fill-rule:nonzero;stroke:none"
             id="path2468" /></g><g
           id="g2470"
           transform="translate(819,1065.375)"><path
             d="M 0,0 L 99,124.292 L 191.75,0.583 L 96.5,-112.937 L 0,0 z"
             style="fill:#8f8e93;fill-opacity:1;fill-rule:nonzero;stroke:none"
             id="path2472" /></g><g
           id="g2474"
           transform="translate(583,1151)"><path
             d="M 0,0 L 214,-95.5 L 214.5,-517.5 L 0,0 z"
             style="fill:#8f8e93;fill-opacity:1;fill-rule:nonzero;stroke:none"
             id="path2476" /></g><g
           id="g2478"
           transform="translate(1247.5,1151.5)"><path
             d="M 0,0 L -215.516,-96.375 L -216.016,-518.375 L 0,0 z"
             style="fill:#8f8e93;fill-opacity:1;fill-rule:nonzero;stroke:none"
             id="path2480" /></g><g
           id="g2482"
           transform="translate(817.75,1034.7344)"><path
             d="M 0,0 L 97.75,-114.604 L 194.417,0.016 L 194.417,-383.401 L 97.75,-136.359 L 0,-383.401 L 0,0 z"
             style="fill:#472289;fill-opacity:1;fill-rule:nonzero;stroke:none"
             id="path2484" /></g><g
           id="g2486"
           transform="translate(817.667,1098.8335)"><path
             d="M 0,0 L 0,84.333 L 97.333,256.167 L 194,84.5 L 194,2.667 L 100.333,128.167 L 0,0 z"
             style="fill:#472289;fill-opacity:1;fill-rule:nonzero;stroke:none"
             id="path2488" /></g><g
           id="g2490"
           transform="translate(147.3335,580.498)"><path
             d="M 0,0 C -4.563,0 -9.019,-0.487 -13.325,-1.411 L 10.688,-140.085 C 42.424,-134.675 66.667,-105.586 66.667,-70.499 C 66.667,-31.563 36.819,0 0,0"
             style="fill:#472289;fill-opacity:1;fill-rule:nonzero;stroke:none"
             id="path2492" /></g><g
           id="g2494"
           transform="translate(147.3335,539.498)"><path
             d="M 0,0 C -2.181,0 -4.3,-0.269 -6.338,-0.759 L 3.701,-58.736 C 17.507,-56.837 28.167,-44.477 28.167,-29.499 C 28.167,-13.207 15.556,0 0,0"
             style="fill:#ffffff;fill-opacity:1;fill-rule:nonzero;stroke:none"
             id="path2496" /></g><g
           id="g2498"
           transform="translate(1682.6758,580.4111)"><path
             d="M 0,0 C 4.563,0 9.019,-0.487 13.324,-1.411 L -10.688,-140.085 C -42.425,-134.675 -66.667,-105.586 -66.667,-70.499 C -66.667,-31.563 -36.819,0 0,0"
             style="fill:#472289;fill-opacity:1;fill-rule:nonzero;stroke:none"
             id="path2500" /></g><g
           id="g2502"
           transform="translate(1682.6758,539.4111)"><path
             d="M 0,0 C 2.18,0 4.299,-0.269 6.338,-0.759 L -3.701,-58.736 C -17.508,-56.837 -28.167,-44.477 -28.167,-29.499 C -28.167,-13.207 -15.557,0 0,0"
             style="fill:#ffffff;fill-opacity:1;fill-rule:nonzero;stroke:none"
             id="path2504" /></g><g
           id="g2506"
           transform="translate(134,614.333)"><path
             d="M 0,0 L 38.333,-1.666 L 21.5,47.5 L 0,0 z"
             style="fill:#472289;fill-opacity:1;fill-rule:nonzero;stroke:none"
             id="path2508" /></g><g
           id="g2510"
           transform="translate(189.4644,606.4473)"><path
             d="M 0,0 L 32.036,-21.28 L 43.036,30.386 L 0,0 z"
             style="fill:#472289;fill-opacity:1;fill-rule:nonzero;stroke:none"
             id="path2512" /></g><g
           id="g2514"
           transform="translate(233.063,571.9473)"><path
             d="M 0,0 L 17.104,-34.447 L 53.437,4.22 L 0,0 z"
             style="fill:#472289;fill-opacity:1;fill-rule:nonzero;stroke:none"
             id="path2516" /></g><g
           id="g2518"
           transform="translate(253.1665,519.999)"><path
             d="M 0,0 L -3,-38.499 L 47.8,-23.18 L 0,0 z"
             style="fill:#472289;fill-opacity:1;fill-rule:nonzero;stroke:none"
             id="path2520" /></g><g
           id="g2522"
           transform="translate(245.6665,469.667)"><path
             d="M 0,0 L -21.167,-32.5 L 31.167,-43 L 0,0 z"
             style="fill:#472289;fill-opacity:1;fill-rule:nonzero;stroke:none"
             id="path2524" /></g><g
           id="g2526"
           transform="translate(206.667,422.667)"><path
             d="M 0,0 L -35.167,-15.834 L 2.167,-52.667 L 0,0 z"
             style="fill:#472289;fill-opacity:1;fill-rule:nonzero;stroke:none"
             id="path2528" /></g><g
           id="g2530"
           transform="translate(1696,614)"><path
             d="M 0,0 L -38.334,-1.666 L -21.5,47.5 L 0,0 z"
             style="fill:#472289;fill-opacity:1;fill-rule:nonzero;stroke:none"
             id="path2532" /></g><g
           id="g2534"
           transform="translate(1640.5352,606.1143)"><path
             d="M 0,0 L -32.035,-21.28 L -43.035,30.386 L 0,0 z"
             style="fill:#472289;fill-opacity:1;fill-rule:nonzero;stroke:none"
             id="path2536" /></g><g
           id="g2538"
           transform="translate(1596.9375,571.6143)"><path
             d="M 0,0 L -17.104,-34.447 L -53.438,4.22 L 0,0 z"
             style="fill:#472289;fill-opacity:1;fill-rule:nonzero;stroke:none"
             id="path2540" /></g><g
           id="g2542"
           transform="translate(1576.834,519.666)"><path
             d="M 0,0 L 2.998,-38.499 L -47.801,-23.18 L 0,0 z"
             style="fill:#472289;fill-opacity:1;fill-rule:nonzero;stroke:none"
             id="path2544" /></g><g
           id="g2546"
           transform="translate(1584.334,469.334)"><path
             d="M 0,0 L 21.166,-32.5 L -31.168,-43 L 0,0 z"
             style="fill:#472289;fill-opacity:1;fill-rule:nonzero;stroke:none"
             id="path2548" /></g><g
           id="g2550"
           transform="translate(1623.332,422.334)"><path
             d="M 0,0 L 35.168,-15.834 L -2.166,-52.667 L 0,0 z"
             style="fill:#472289;fill-opacity:1;fill-rule:nonzero;stroke:none"
             id="path2552" /></g><g
           id="g2554"
           transform="translate(545,661.834)"><path
             d="M 0,0 C 0,39.856 32.403,72.166 72.375,72.166 C 112.347,72.166 144.75,39.856 144.75,0 C 144.75,-39.857 112.347,-72.167 72.375,-72.167 C 32.403,-72.167 0,-39.857 0,0"
             style="fill:#000000;fill-opacity:1;fill-rule:nonzero;stroke:none"
             id="path2556" /></g><g
           id="g2558"
           transform="translate(672,677)"><path
             d="M 0,0 C 0,-41.974 -34.866,-76 -77.875,-76 C -120.884,-76 -155.75,-41.974 -155.75,0 C -155.75,41.974 -120.884,76 -77.875,76 C -34.866,76 0,41.974 0,0"
             style="fill:#000000;fill-opacity:1;fill-rule:nonzero;stroke:none"
             id="path2560" /></g><g
           id="g2562"
           transform="translate(656,677)"><path
             d="M 0,0 C 0,-34.173 -27.702,-61.875 -61.875,-61.875 C -96.048,-61.875 -123.75,-34.173 -123.75,0 C -123.75,34.173 -96.048,61.875 -61.875,61.875 C -27.702,61.875 0,34.173 0,0"
             style="fill:#472289;fill-opacity:1;fill-rule:nonzero;stroke:none"
             id="path2564" /></g><g
           id="g2566"
           transform="translate(1174.624,661.834)"><path
             d="M 0,0 C 0,39.856 32.403,72.166 72.375,72.166 C 112.347,72.166 144.75,39.856 144.75,0 C 144.75,-39.857 112.347,-72.167 72.375,-72.167 C 32.403,-72.167 0,-39.857 0,0"
             style="fill:#000000;fill-opacity:1;fill-rule:nonzero;stroke:none"
             id="path2568" /></g><g
           id="g2570"
           transform="translate(1301.624,677)"><path
             d="M 0,0 C 0,-41.974 -34.866,-76 -77.875,-76 C -120.884,-76 -155.75,-41.974 -155.75,0 C -155.75,41.974 -120.884,76 -77.875,76 C -34.866,76 0,41.974 0,0"
             style="fill:#000000;fill-opacity:1;fill-rule:nonzero;stroke:none"
             id="path2572" /></g><g
           id="g2574"
           transform="translate(1285.624,677)"><path
             d="M 0,0 C 0,-34.173 -27.702,-61.875 -61.875,-61.875 C -96.048,-61.875 -123.75,-34.173 -123.75,0 C -123.75,34.173 -96.048,61.875 -61.875,61.875 C -27.702,61.875 0,34.173 0,0"
             style="fill:#472289;fill-opacity:1;fill-rule:nonzero;stroke:none"
             id="path2576" /></g><g
           id="g2578"
           transform="translate(481.833,292)"><path
             d="M 0,0 C 0,-19.514 -15.819,-35.333 -35.333,-35.333 C -54.847,-35.333 -70.666,-19.514 -70.666,0 C -70.666,19.514 -54.847,35.333 -35.333,35.333 C -15.819,35.333 0,19.514 0,0"
             style="fill:#000000;fill-opacity:1;fill-rule:nonzero;stroke:none"
             id="path2580" /></g><g
           id="g2582"
           transform="translate(470.25,299.041)"><path
             d="M 0,0 C 0,-21.447 -17.386,-38.833 -38.833,-38.833 C -60.28,-38.833 -77.666,-21.447 -77.666,0 C -77.666,21.447 -60.28,38.833 -38.833,38.833 C -17.386,38.833 0,21.447 0,0"
             style="fill:#ffffff;fill-opacity:1;fill-rule:nonzero;stroke:none"
             id="path2584" /></g><g
           id="g2586"
           transform="translate(462.75,299.041)"><path
             d="M 0,0 C 0,-17.305 -14.028,-31.333 -31.333,-31.333 C -48.638,-31.333 -62.666,-17.305 -62.666,0 C -62.666,17.305 -48.638,31.333 -31.333,31.333 C -14.028,31.333 0,17.305 0,0"
             style="fill:#472289;fill-opacity:1;fill-rule:nonzero;stroke:none"
             id="path2588" /></g><g
           id="g2590"
           transform="translate(781.916,344.292)"><path
             d="M 0,0 C 0,-19.514 -15.819,-35.333 -35.333,-35.333 C -54.847,-35.333 -70.666,-19.514 -70.666,0 C -70.666,19.514 -54.847,35.333 -35.333,35.333 C -15.819,35.333 0,19.514 0,0"
             style="fill:#000000;fill-opacity:1;fill-rule:nonzero;stroke:none"
             id="path2592" /></g><g
           id="g2594"
           transform="translate(770.333,351.333)"><path
             d="M 0,0 C 0,-21.447 -17.386,-38.833 -38.833,-38.833 C -60.28,-38.833 -77.666,-21.447 -77.666,0 C -77.666,21.447 -60.28,38.833 -38.833,38.833 C -17.386,38.833 0,21.447 0,0"
             style="fill:#ffffff;fill-opacity:1;fill-rule:nonzero;stroke:none"
             id="path2596" /></g><g
           id="g2598"
           transform="translate(762.833,351.333)"><path
             d="M 0,0 C 0,-17.305 -14.028,-31.333 -31.333,-31.333 C -48.638,-31.333 -62.666,-17.305 -62.666,0 C -62.666,17.305 -48.638,31.333 -31.333,31.333 C -14.028,31.333 0,17.305 0,0"
             style="fill:#472289;fill-opacity:1;fill-rule:nonzero;stroke:none"
             id="path2600" /></g><g
           id="g2602"
           transform="translate(963.249,611.459)"><path
             d="M 0,0 C 0,-19.514 -15.819,-35.333 -35.333,-35.333 C -54.847,-35.333 -70.666,-19.514 -70.666,0 C -70.666,19.514 -54.847,35.333 -35.333,35.333 C -15.819,35.333 0,19.514 0,0"
             style="fill:#000000;fill-opacity:1;fill-rule:nonzero;stroke:none"
             id="path2604" /></g><g
           id="g2606"
           transform="translate(951.666,618.5)"><path
             d="M 0,0 C 0,-21.447 -17.387,-38.833 -38.833,-38.833 C -60.28,-38.833 -77.666,-21.447 -77.666,0 C -77.666,21.447 -60.28,38.833 -38.833,38.833 C -17.387,38.833 0,21.447 0,0"
             style="fill:#ffffff;fill-opacity:1;fill-rule:nonzero;stroke:none"
             id="path2608" /></g><g
           id="g2610"
           transform="translate(944.166,618.5)"><path
             d="M 0,0 C 0,-17.305 -14.028,-31.333 -31.333,-31.333 C -48.638,-31.333 -62.666,-17.305 -62.666,0 C -62.666,17.305 -48.638,31.333 -31.333,31.333 C -14.028,31.333 0,17.305 0,0"
             style="fill:#472289;fill-opacity:1;fill-rule:nonzero;stroke:none"
             id="path2612" /></g><g
           id="g2614"
           transform="translate(1126.249,339.959)"><path
             d="M 0,0 C 0,-19.514 -15.819,-35.333 -35.333,-35.333 C -54.847,-35.333 -70.666,-19.514 -70.666,0 C -70.666,19.514 -54.847,35.333 -35.333,35.333 C -15.819,35.333 0,19.514 0,0"
             style="fill:#000000;fill-opacity:1;fill-rule:nonzero;stroke:none"
             id="path2616" /></g><g
           id="g2618"
           transform="translate(1114.666,347)"><path
             d="M 0,0 C 0,-21.447 -17.387,-38.833 -38.833,-38.833 C -60.279,-38.833 -77.666,-21.447 -77.666,0 C -77.666,21.447 -60.279,38.833 -38.833,38.833 C -17.387,38.833 0,21.447 0,0"
             style="fill:#ffffff;fill-opacity:1;fill-rule:nonzero;stroke:none"
             id="path2620" /></g><g
           id="g2622"
           transform="translate(1107.166,347)"><path
             d="M 0,0 C 0,-17.305 -14.028,-31.333 -31.333,-31.333 C -48.638,-31.333 -62.666,-17.305 -62.666,0 C -62.666,17.305 -48.638,31.333 -31.333,31.333 C -14.028,31.333 0,17.305 0,0"
             style="fill:#472289;fill-opacity:1;fill-rule:nonzero;stroke:none"
             id="path2624" /></g><g
           id="g2626"
           transform="translate(1427.1143,292)"><path
             d="M 0,0 C 0,-19.514 -15.819,-35.333 -35.333,-35.333 C -54.847,-35.333 -70.666,-19.514 -70.666,0 C -70.666,19.514 -54.847,35.333 -35.333,35.333 C -15.819,35.333 0,19.514 0,0"
             style="fill:#000000;fill-opacity:1;fill-rule:nonzero;stroke:none"
             id="path2628" /></g><g
           id="g2630"
           transform="translate(1415.5313,299.041)"><path
             d="M 0,0 C 0,-21.447 -17.387,-38.833 -38.833,-38.833 C -60.279,-38.833 -77.666,-21.447 -77.666,0 C -77.666,21.447 -60.279,38.833 -38.833,38.833 C -17.387,38.833 0,21.447 0,0"
             style="fill:#ffffff;fill-opacity:1;fill-rule:nonzero;stroke:none"
             id="path2632" /></g><g
           id="g2634"
           transform="translate(1408.0313,299.041)"><path
             d="M 0,0 C 0,-17.305 -14.028,-31.333 -31.333,-31.333 C -48.638,-31.333 -62.666,-17.305 -62.666,0 C -62.666,17.305 -48.638,31.333 -31.333,31.333 C -14.028,31.333 0,17.305 0,0"
             style="fill:#472289;fill-opacity:1;fill-rule:nonzero;stroke:none"
             id="path2636" /></g><g
           id="g2638"
           transform="translate(761.249,996.2295)"><path
             d="M 0,0 C 0,-20.998 -16.771,-38.021 -37.458,-38.021 C -58.145,-38.021 -74.916,-20.998 -74.916,0 C -74.916,20.998 -58.145,38.021 -37.458,38.021 C -16.771,38.021 0,20.998 0,0"
             style="fill:#000000;fill-opacity:1;fill-rule:nonzero;stroke:none"
             id="path2640" /></g><g
           id="g2642"
           transform="translate(752,1004)"><path
             d="M 0,0 C 0,-22.229 -18.142,-40.25 -40.521,-40.25 C -62.9,-40.25 -81.042,-22.229 -81.042,0 C -81.042,22.23 -62.9,40.25 -40.521,40.25 C -18.142,40.25 0,22.23 0,0"
             style="fill:#000000;fill-opacity:1;fill-rule:nonzero;stroke:none"
             id="path2644" /></g><g
           id="g2646"
           transform="translate(743.75,1004)"><path
             d="M 0,0 C 0,-17.704 -14.448,-32.055 -32.271,-32.055 C -50.094,-32.055 -64.542,-17.704 -64.542,0 C -64.542,17.704 -50.094,32.055 -32.271,32.055 C -14.448,32.055 0,17.704 0,0"
             style="fill:#472289;fill-opacity:1;fill-rule:nonzero;stroke:none"
             id="path2648" /></g><g
           id="g2650"
           transform="translate(1150.291,996.2295)"><path
             d="M 0,0 C 0,-20.998 -16.771,-38.021 -37.458,-38.021 C -58.145,-38.021 -74.916,-20.998 -74.916,0 C -74.916,20.998 -58.145,38.021 -37.458,38.021 C -16.771,38.021 0,20.998 0,0"
             style="fill:#000000;fill-opacity:1;fill-rule:nonzero;stroke:none"
             id="path2652" /></g><g
           id="g2654"
           transform="translate(1141.042,1004)"><path
             d="M 0,0 C 0,-22.229 -18.142,-40.25 -40.521,-40.25 C -62.9,-40.25 -81.042,-22.229 -81.042,0 C -81.042,22.23 -62.9,40.25 -40.521,40.25 C -18.142,40.25 0,22.23 0,0"
             style="fill:#000000;fill-opacity:1;fill-rule:nonzero;stroke:none"
             id="path2656" /></g><g
           id="g2658"
           transform="translate(1132.792,1004)"><path
             d="M 0,0 C 0,-17.704 -14.448,-32.055 -32.271,-32.055 C -50.094,-32.055 -64.542,-17.704 -64.542,0 C -64.542,17.704 -50.094,32.055 -32.271,32.055 C -14.448,32.055 0,17.704 0,0"
             style="fill:#472289;fill-opacity:1;fill-rule:nonzero;stroke:none"
             id="path2660" /></g><g
           id="g2662"
           transform="translate(953.542,1067.5)"><path
             d="M 0,0 C 0,-22.229 -18.142,-40.25 -40.521,-40.25 C -62.9,-40.25 -81.042,-22.229 -81.042,0 C -81.042,22.23 -62.9,40.25 -40.521,40.25 C -18.142,40.25 0,22.23 0,0"
             style="fill:#000000;fill-opacity:1;fill-rule:nonzero;stroke:none"
             id="path2664" /></g><g
           id="g2666"
           transform="translate(945.292,1067.5)"><path
             d="M 0,0 C 0,-17.704 -14.448,-32.055 -32.271,-32.055 C -50.094,-32.055 -64.542,-17.704 -64.542,0 C -64.542,17.704 -50.094,32.055 -32.271,32.055 C -14.448,32.055 0,17.704 0,0"
             style="fill:#472289;fill-opacity:1;fill-rule:nonzero;stroke:none"
             id="path2668" /></g><g
           id="g2670"
           transform="translate(653.667,1185)"><path
             d="M 0,0 L 24.833,-48 L 140.5,-48 L 260.5,158.5 L 381.166,-47.167 L 498,-47 L 521.666,0.833 L 407,1 L 287.5,203.583 L 344.333,302 L 363.333,323 L 345.667,352 L 308.083,347.75 L 304.667,325.333 L 260.667,251 L 217.667,323.333 L 213.333,349.333 L 174.333,351.333 L 154.958,323.125 L 177,300.333 L 233.583,204.25 L 113.667,0 L 0,0 z"
             style="fill:#ffffff;fill-opacity:1;fill-rule:nonzero;stroke:none"
             id="path2672" /></g><g
           id="g2674"
           transform="translate(673.6665,1172.6665)"><path
             d="M 0,0 L 12.667,-22.833 L 113.667,-22.833 L 240.5,193.833 L 368.333,-22.833 L 470.167,-22.833 L 482.333,1.583 L 381.083,1.583 L 254,216 L 316.083,322.833 L 329.021,336.333 L 318.834,352.167 L 298,349.333 L 295.834,334.5 L 240.5,239.667 L 186.958,331.333 L 183.333,350.583 L 161.083,352.333 L 150.083,336.833 L 167.083,319.833 L 227.583,216.75 L 100.333,0 L 0,0 z"
             style="fill:#000000;fill-opacity:1;fill-rule:nonzero;stroke:none"
             id="path2676" /></g></g></g></g></svg>