<?xml version="1.0" encoding="utf-8"?>
<!-- Generator: Adobe Illustrator 13.0.0, SVG Export Plug-In . SVG Version: 6.00 Build 14948)  -->
<!DOCTYPE svg PUBLIC "-//W3C//DTD SVG 1.1//EN" "http://www.w3.org/Graphics/SVG/1.1/DTD/svg11.dtd">
<svg version="1.1" id="Layer_2" xmlns="http://www.w3.org/2000/svg" xmlns:xlink="http://www.w3.org/1999/xlink" x="0px" y="0px"
	 width="246.844px" height="254.182px" viewBox="0 0 246.844 254.182" enable-background="new 0 0 246.844 254.182"
	 xml:space="preserve">
<g>
	<path d="M231.344,91.021c0-21.5,9.313-36.875,15.5-48.063c-6.093,0.286-21.898-5.384-30.146-15.688
		c-5.041-6.298-8.308-15.12-9.026-26.906c-6.203,8.406-23.391,19.094-36.359,19.094c-17.552,0-36.094-6.563-47.891-19.458
		c-11.797,12.896-30.339,19.458-47.891,19.458c-12.969,0-30.156-10.688-36.359-19.094c-0.72,11.786-3.985,20.608-9.026,26.906
		C21.899,37.574,6.093,43.244,0,42.958c6.188,11.188,15.5,26.563,15.5,48.063c0,14.518-3.292,24.838-6.813,34.375
		c-2.89,7.828-7.313,16.562-7.313,33.916c0,34.412,16.98,54.587,38.438,66.459c27.087,14.987,59.413,16.94,74,21.75
		c4.874,1.605,8.96,5.634,9.609,6.66c0.649-1.026,4.735-5.055,9.608-6.66c14.588-4.81,46.914-6.763,74-21.75
		c21.457-11.872,38.438-32.047,38.438-66.459c0-17.354-4.423-26.088-7.313-33.916C234.637,115.858,231.344,105.539,231.344,91.021z"
		/>
	<path fill="#FF6300" d="M226.698,125.521c-3.317-8.294-6.75-15.396-6.75-28.583c0-19.917,6.083-33.917,11.915-48.417
		c-6.457-0.75-28.957-12.5-31.415-29.833c-2.845,2.5-15.167,10.917-35.335,10.917c-25.332,0-41.691-14.01-41.691-14.01
		s-16.359,14.01-41.692,14.01c-20.167,0-32.489-8.417-35.334-10.917C43.938,36.021,21.438,47.771,14.98,48.521
		c5.833,14.5,11.916,28.5,11.916,48.417c0,13.188-3.433,20.289-6.75,28.583c-3.665,9.164-7.25,19.535-7.25,35.583
		c0,34.698,23.384,53.215,47.75,62.417c21.692,8.191,40.977,9.87,49.917,12.25c5.982,1.592,10.766,3.971,12.875,6.391
		c2.109-2.42,6.861-4.799,12.844-6.391c8.94-2.38,28.225-4.059,49.917-12.25c24.365-9.202,47.75-27.719,47.75-62.417
		C233.948,145.056,230.363,134.685,226.698,125.521z M123.448,26.667c5.458,3.854,23.917,11.792,41.833,11.792
		c13.875,0,26.75-4.938,30.958-8.146c2.417,6.333,10.792,16.708,23.834,22.458c-1.125,1.917-9.354,24.333-9.354,41.063
		c0,19.073,6.883,33.283,11.081,47.082L55.166,32.866c6.032,2.766,15.95,5.592,26.449,5.592
		C99.531,38.458,117.99,30.521,123.448,26.667z M164.198,221.854c-16.05,3.526-34.994,5.48-40.776,10.728
		c-5.782-5.246-24.675-7.2-40.724-10.728c-4.579-1.006-8.935-2.553-12.666-3.833c-24.775-8.508-48.104-24.883-48.104-58.813
		c0-14.378,6.963-27.202,11.154-42.993l152.324,98.501c-2.807,1.217-5.662,2.316-8.541,3.306
		C173.133,219.302,168.777,220.849,164.198,221.854z M194.271,210.327L35.02,107.347c0.717-4.247,1.158-8.726,1.158-13.515
		c0-16.729-8.229-39.146-9.354-41.063c8.85-3.902,15.543-9.933,19.692-15.386l178.007,115.424c0.281,2.107,0.447,4.234,0.447,6.398
		C224.969,184.934,211.555,200.562,194.271,210.327z"/>
	<polygon fill="#FF6300" points="53.531,54.267 53.531,107.694 62.219,113.327 62.219,78.641 79.656,124.634 92.469,132.942 
		92.469,79.515 83.406,73.638 83.406,109.217 64.406,61.318 	"/>
	<polygon fill="#FF6300" points="105.781,141.574 105.781,88.146 115.469,94.427 115.469,114.333 136.344,127.396 136.344,107.964 
		145.719,114.043 145.719,167.471 136.344,161.392 136.344,139.333 115.469,126.396 115.469,147.855 	"/>
	<polygon fill="#FF6300" points="158.969,176.063 158.969,122.635 169.594,129.524 169.594,171.975 193.969,187.78 193.969,198.758 
			"/>
	<g>
		<path id="path226" fill="#161413" d="M232.226,230.174c-3.514,0-6.355,3.289-6.355,7.362c0,4.051,2.842,7.356,6.355,7.356
			c3.516,0,6.357-3.306,6.357-7.356C238.583,233.463,235.741,230.174,232.226,230.174z M232.226,243.308
			c-2.758,0-5.001-2.581-5.001-5.772c0-3.197,2.243-5.792,5.001-5.792c2.762,0,5,2.595,5,5.792
			C237.226,240.727,234.987,243.308,232.226,243.308z"/>
		<path id="path230" fill="#161413" d="M234.834,235.829c0-1.383-0.967-2.502-2.16-2.502h-3.064v8.41h1.365v-3.426h0.98l1.381,3.426
			h1.498l-1.428-3.563C234.232,237.833,234.834,236.905,234.834,235.829z M232.674,236.741h-1.699v-1.843h1.699
			c0.449,0,0.802,0.411,0.802,0.931C233.476,236.333,233.123,236.741,232.674,236.741z"/>
	</g>
</g>
</svg>
