<?xml version="1.0" standalone="no"?>
<!DOCTYPE svg PUBLIC "-//W3C//DTD SVG 20010904//EN"
 "http://www.w3.org/TR/2001/REC-SVG-20010904/DTD/svg10.dtd">
<svg version="1.0" xmlns="http://www.w3.org/2000/svg"
 width="700.000000pt" height="700.000000pt" viewBox="0 0 700.000000 700.000000"
 preserveAspectRatio="xMidYMid meet">
<metadata>
Created by potrace 1.11, written by Peter Selinger 2001-2013
</metadata>
<g transform="translate(0.000000,700.000000) scale(0.100000,-0.100000)"
fill="#000000" stroke="none">
<path d="M3387 6124 c-1 -1 -85 -4 -187 -8 -102 -3 -201 -8 -220 -10 -19 -2
-80 -7 -135 -11 -55 -3 -109 -8 -120 -10 -11 -2 -47 -7 -80 -11 -33 -3 -69 -7
-80 -9 -11 -1 -45 -5 -75 -9 -68 -9 -108 -15 -140 -21 -14 -3 -36 -8 -50 -10
-14 -3 -41 -8 -60 -11 -32 -4 -50 -7 -105 -18 -94 -18 -327 -76 -451 -111
-621 -178 -1129 -470 -1413 -810 -128 -153 -232 -373 -259 -545 -4 -25 -7
-497 -7 -1050 l0 -1005 27 -95 c28 -105 89 -241 146 -329 20 -31 39 -58 42
-61 3 -3 18 -23 35 -45 52 -70 217 -228 321 -306 284 -214 626 -378 1063 -510
143 -43 427 -115 486 -124 24 -3 70 -11 200 -35 55 -10 127 -21 160 -25 33 -3
71 -8 85 -10 14 -3 50 -7 80 -10 30 -3 62 -8 70 -10 8 -2 65 -7 125 -10 61 -4
124 -9 140 -11 173 -22 776 -21 1050 1 22 2 83 6 135 10 52 4 97 8 100 10 3 2
39 6 80 10 41 3 82 8 90 10 8 2 40 7 70 10 30 3 66 8 80 11 23 4 37 6 100 19
34 6 74 13 129 21 25 3 102 20 171 36 69 16 136 32 150 34 41 8 352 102 426
130 38 14 101 37 139 51 39 14 123 50 188 80 599 278 956 628 1075 1052 l27
96 0 995 c0 547 -3 1020 -7 1050 -18 129 -63 251 -149 400 -37 65 -133 183
-214 265 -171 172 -389 322 -665 457 -120 58 -340 148 -363 148 -7 0 -17 4
-23 9 -26 27 -560 171 -759 205 -87 15 -111 20 -165 31 -31 6 -72 12 -130 19
-25 3 -85 10 -135 16 -49 6 -101 13 -115 15 -14 2 -63 7 -110 10 -47 4 -105 8
-130 10 -118 10 -635 26 -643 19z m563 -597 c25 -3 85 -9 134 -12 49 -4 97 -8
107 -10 10 -2 44 -6 76 -10 80 -8 103 -11 218 -30 55 -9 115 -18 134 -21 40
-7 37 -6 185 -38 66 -15 163 -38 215 -52 725 -190 1247 -511 1371 -842 135
-361 -303 -773 -1105 -1037 -120 -40 -337 -101 -393 -111 -13 -3 -52 -11 -86
-19 -33 -8 -72 -16 -86 -19 -14 -3 -36 -7 -50 -10 -14 -3 -45 -9 -70 -12 -25
-3 -47 -8 -50 -9 -3 -2 -33 -7 -65 -10 -33 -4 -63 -9 -66 -11 -3 -2 -33 -6
-65 -9 -32 -3 -72 -7 -89 -10 -69 -10 -132 -18 -170 -20 -22 -1 -94 -7 -160
-11 -151 -11 -724 -12 -870 -1 -172 13 -228 18 -335 32 -19 3 -57 7 -85 10
-27 3 -60 7 -71 9 -12 3 -39 7 -60 10 -428 67 -865 192 -1172 337 -46 21 -86
39 -89 39 -10 0 -223 127 -283 169 -84 58 -119 89 -205 177 -193 198 -230 399
-111 597 136 225 439 435 871 605 239 94 653 207 870 237 22 3 51 8 65 11 13
3 40 7 60 10 19 2 46 6 60 9 24 5 40 7 140 19 42 5 124 14 195 21 17 2 82 6
145 10 63 4 116 9 118 10 6 5 724 -3 772 -8z m-3270 -2213 c307 -212 804 -416
1267 -519 17 -4 147 -32 188 -41 65 -14 308 -55 359 -60 34 -4 63 -8 66 -9 3
-2 41 -6 85 -10 44 -4 82 -9 85 -10 5 -3 93 -11 225 -20 304 -23 829 -23 1085
-1 30 3 91 8 134 11 43 4 87 8 97 10 10 2 53 6 95 10 42 3 80 7 83 9 3 2 31 7
62 10 31 4 67 9 80 11 13 3 41 7 64 10 67 10 436 86 462 96 13 5 36 11 51 14
53 9 304 85 429 131 261 93 581 253 738 368 17 12 42 29 56 38 l25 16 -1 -406
c-1 -455 -3 -465 -72 -579 -69 -113 -177 -220 -333 -329 -48 -33 -256 -154
-266 -154 -2 0 -36 -16 -76 -36 -195 -95 -574 -219 -858 -279 -41 -9 -84 -18
-95 -21 -34 -7 -318 -54 -360 -59 -106 -13 -232 -27 -270 -31 -286 -27 -902
-26 -1170 1 -22 2 -65 7 -95 10 -30 3 -68 8 -85 10 -16 3 -52 7 -80 10 -43 3
-91 11 -267 40 -56 10 -84 15 -108 21 -14 3 -54 12 -90 19 -36 7 -94 21 -130
30 -36 9 -72 19 -80 21 -132 32 -297 85 -460 149 -483 188 -812 439 -911 694
-22 54 -22 68 -24 473 0 286 2 415 10 410 5 -3 44 -29 85 -58z"/>
</g>
</svg>
